<?xml version="1.0" encoding="utf-8"?>
<svg version="1.1" xmlns="http://www.w3.org/2000/svg"  viewBox="0 0 32 32" enable-background="new 0 0 32 32">
	<g id="bell" >
        <path fill="none" d="M24 18v-8c0-5.5-4.5-10-10-10S4 4.5 4 10v8l-4 8h9.1c.5 2.3 2.5 4 4.9 4s4.4-1.7 4.9-4H28l-4-8zM14 28c-1.3 0-2.4-.8-2.8-2h5.6c-.4 1.2-1.5 2-2.8 2zM3 24l3-6v-8c0-4.4 3.6-8 8-8s8 3.6 8 8v8l3 6H3z" />
	</g>
	<g id="visits">
		 <path fill="none" d="M25 18c1.7 0 3-1.3 3-3s-1.3-3-3-3-3 1.3-3 3 1.3 3 3 3zm-1-4h2v2h-2v-2zm1 12c1.7 0 3-1.3 3-3s-1.3-3-3-3-3 1.3-3 3 1.3 3 3 3zm-1-4h2v2h-2v-2zm-7 4c1.7 0 3-1.3 3-3s-1.3-3-3-3-3 1.3-3 3 1.3 3 3 3zm-1-4h2v2h-2v-2zM28 0H6C3.8 0 2 1.8 2 4v24c0 2.2 1.8 4 4 4h22c2.2 0 4-1.8 4-4V4c0-2.2-1.8-4-4-4zm2 28c0 1.1-.9 2-2 2H6c-1.1 0-2-.9-2-2V8h26v20zm0-22H4V4c0-1.1.9-2 2-2h22c1.1 0 2 .9 2 2v2zM17 18c1.7 0 3-1.3 3-3s-1.3-3-3-3-3 1.3-3 3 1.3 3 3 3zm-1-4h2v2h-2v-2zM9 26c1.7 0 3-1.3 3-3s-1.3-3-3-3-3 1.3-3 3 1.3 3 3 3zm-1-4h2v2H8v-2zm1-4c1.7 0 3-1.3 3-3s-1.3-3-3-3-3 1.3-3 3 1.3 3 3 3zm-1-4h2v2H8v-2z"/>
	</g>
	<g id="members">
		<path fill="none" d="M18 16.4c1.3-1.7 2-3.9 2-6.4 0-5.5-4-10-9-10S2 4.5 2 10c0 2.4.8 4.6 2 6.4-2.3.8-4 3-4 5.6v4c0 3.3 2.7 6 6 6h10c3.3 0 6-2.7 6-6v-4c0-2.6-1.7-4.8-4-5.6zM4 10c0-4.4 3.1-8 7-8s7 3.6 7 8-3.1 8-7 8-7-3.6-7-8zm16 15.5c0 2.5-2.2 4.5-4.9 4.5H6.9C4.2 30 2 28 2 25.5v-3c0-2.1 1.6-3.9 3.8-4.4C7.2 19.3 9 20 11 20s3.8-.7 5.2-1.9c2.2.5 3.8 2.2 3.8 4.4v3zM23 8h8c.6 0 1-.4 1-1s-.4-1-1-1h-8c-.6 0-1 .4-1 1s.4 1 1 1zm8 16h-6c-.6 0-1 .4-1 1s.4 1 1 1h6c.6 0 1-.4 1-1s-.4-1-1-1zm0-12h-8c-.6 0-1 .4-1 1s.4 1 1 1h8c.6 0 1-.4 1-1s-.4-1-1-1zm0 6h-6c-.6 0-1 .4-1 1s.4 1 1 1h6c.6 0 1-.4 1-1s-.4-1-1-1z"/>
	</g>
	<g id="dashboard">
		 <path  fill="none" d="M14 0h-2c-1.1 0-2 .9-2 2v28c0 1.1.9 2 2 2h2c1.1 0 2-.9 2-2V2c0-1.1-.9-2-2-2zm0 29c0 .6-.4 1-1 1s-1-.4-1-1V3c0-.6.4-1 1-1s1 .4 1 1v26zM4 9H2c-1.1 0-2 .9-2 2v19c0 1.1.9 2 2 2h2c1.1 0 2-.9 2-2V11c0-1.1-.9-2-2-2zm0 20c0 .6-.4 1-1 1s-1-.4-1-1V12c0-.6.4-1 1-1s1 .4 1 1v17zm20-13h-2c-1.1 0-2 .9-2 2v12c0 1.1.9 2 2 2h2c1.1 0 2-.9 2-2V18c0-1.1-.9-2-2-2zm0 13c0 .6-.4 1-1 1s-1-.4-1-1V19c0-.6.4-1 1-1s1 .4 1 1v10z"/>
	</g>
	<g id="settings">
		<path  fill="none" d="M26 24H14.9c-.4-1.7-2-3-3.9-3s-3.4 1.3-3.9 3H6c-.6 0-1 .4-1 1s.4 1 1 1h1.1c.4 1.7 2 3 3.9 3s3.4-1.3 3.9-3H26c.6 0 1-.4 1-1s-.4-1-1-1zm-15 3.4c-1.3 0-2.4-1.1-2.4-2.4 0-1.3 1.1-2.4 2.4-2.4 1.3 0 2.4 1.1 2.4 2.4 0 1.3-1.1 2.4-2.4 2.4zM26 8H14.9c-.4-1.7-2-3-3.9-3S7.6 6.3 7.1 8H6c-.6 0-1 .4-1 1s.4 1 1 1h1.1c.4 1.7 2 3 3.9 3s3.4-1.3 3.9-3H26c.6 0 1-.4 1-1s-.4-1-1-1zm-15 3.4c-1.3 0-2.4-1.1-2.4-2.4 0-1.3 1.1-2.4 2.4-2.4 1.3 0 2.4 1.1 2.4 2.4 0 1.3-1.1 2.4-2.4 2.4zM26 16h-2.1c-.4-1.7-2-3-3.9-3s-3.4 1.3-3.9 3H6c-.6 0-1 .4-1 1s.4 1 1 1h10.1c.4 1.7 2 3 3.9 3s3.4-1.3 3.9-3H26c.6 0 1-.4 1-1s-.4-1-1-1zm-6 3.4c-1.3 0-2.4-1.1-2.4-2.4 0-1.3 1.1-2.4 2.4-2.4 1.3 0 2.4 1.1 2.4 2.4 0 1.3-1.1 2.4-2.4 2.4zM28 0H4C1.8 0 0 1.8 0 4v24c0 2.2 1.8 4 4 4h24c2.2 0 4-1.8 4-4V4c0-2.2-1.8-4-4-4zm2 28c0 1.1-.9 2-2 2H4c-1.1 0-2-.9-2-2V4c0-1.1.9-2 2-2h24c1.1 0 2 .9 2 2v24z"/>
	</g>
	<script>document.getElementById(location.hash.substring(1)).getElementsByTagName('path')[0].setAttribute('fill', '#fff');</script> 
</svg>